<svg xmlns="http://www.w3.org/2000/svg" class="h-full w-full" viewBox="0 0 60 50">
  <path d="M36.84 24.22a8.33 8.33 0 1 0-8.33 8.34 8.33 8.33 0 0 0 8.33-8.34Z" style="fill:none;stroke:currentcolor"/>
  <path d="M29.69 22.53a1.19 1.19 0 0 0-1.31-1c-.66 0-1 .27-1 .71s.27.67 1.08.84a5.27 5.27 0 0 1 2 .68 2.28 2.28 0 0 1 1 1.9 2.62 2.62 0 0 1-1.11 2.13 3.54 3.54 0 0 1-2 .52 3.37 3.37 0 0 1-2.17-.68 2.61 2.61 0 0 1-.9-1.54l1.63-.39a1.39 1.39 0 0 0 1.53 1.11c.74 0 1.21-.32 1.21-.84s-.31-.69-1.32-.91a5.05 5.05 0 0 1-1.74-.62 2.07 2.07 0 0 1-.92-1.83 2.43 2.43 0 0 1 .77-1.84 2.71 2.71 0 0 1 2-.7 3.13 3.13 0 0 1 2 .61 2.48 2.48 0 0 1 .74 1.32Z" style="fill:currentcolor"/>
</svg>
