<svg xmlns="http://www.w3.org/2000/svg" class="h-full w-full" viewBox="0 0 120 50">
  <path d="M72.06 30.6a8.33 8.33 0 0 0 11.78 0L78 24.71ZM83.85 18.82a8.34 8.34 0 0 0-11.79 0L78 24.71Z" style="fill:none;stroke:currentcolor"/>
  <path d="M83.85 30.6a8.33 8.33 0 0 0 0-11.78L78 24.71ZM72.06 18.82a8.33 8.33 0 0 0 0 11.78L78 24.71Z" style="fill:currentcolor;stroke:currentcolor"/>
  <path d="m88.95 31.07 1.45 5.42 1.45-5.42h-2.9z"/>
  <path d="M90.38 16.65v15.41" style="fill:none;stroke:currentcolor;stroke-width:.5px"/>
  <path d="m89.66 31.57.73 2.71.72-2.71h-1.45z" style="fill:currentcolor;stroke:currentcolor"/>
  <path d="M40.09 24.71A8.34 8.34 0 1 0 31.76 33a8.33 8.33 0 0 0 8.33-8.29ZM39.81 16.65 23.7 32.77M39.81 32.77 23.7 16.65" style="fill:none;stroke:currentcolor"/>
  <path d="m43.71 31.07 1.45 5.42 1.45-5.42h-2.9z"/>
  <path d="M45.14 16.65v15.41" style="fill:none;stroke:currentcolor;stroke-width:.5px"/>
  <path d="m44.42 31.57.73 2.71.73-2.71h-1.46z" style="fill:currentcolor;stroke:currentcolor"/>
</svg>
