<svg xmlns="http://www.w3.org/2000/svg" class="h-full w-full" viewBox="0 0 60 50">
  <path d="m23.09 25.06 2.37-3.77h1.69l-1.81 2.86 2.26 5.14h-2l-1.49-3.46-1.07 1.63v1.83h-1.68v-8h1.73ZM32 21.29a2.41 2.41 0 0 1 1.81.52 1.92 1.92 0 0 1 .71 1.55 1.73 1.73 0 0 1-1.37 1.77 1.94 1.94 0 0 1 1 .49 2.08 2.08 0 0 1 .61 1.48 2.17 2.17 0 0 1-.76 1.59 2.84 2.84 0 0 1-2 .6h-3.56v-8Zm-1.75 3.17h1.33a1.2 1.2 0 0 0 .8-.18.93.93 0 0 0 .33-.72.86.86 0 0 0-.27-.64c-.19-.19-.32-.21-1-.21h-1.23Zm0 3.36h1.36a1.51 1.51 0 0 0 .87-.17 1 1 0 0 0 .39-.82c0-.6-.43-.94-1.18-.94h-1.48Z" style="fill:currentcolor"/>
  <path d="M19.62 16.52h16.43v17.51H19.62z" style="fill:none;stroke:currentcolor"/>
</svg>
