<svg xmlns="http://www.w3.org/2000/svg" class="h-full w-full" viewBox="0 0 120 50">
  <path d="m24.03 29.17-12.36-8.26 13.87-5.55-1.51 13.81zM38.95 29.63l-1.72-14.77 13.22 6.97-11.5 7.8zM11.67 30h38.78v11.25H11.67zM66.49 30h38.78v11.25H66.49zM82.25 30l-3.89-6.89M75.85 9.89l3.88 5.57a5.5 5.5 0 0 1-1.37 7.65 5.49 5.49 0 0 1-7.64-1.37l-3.88-5.57ZM64.84 12.43l3.66 2.59M73.4 7.25l.38 4.09M68.78 9.3l2.49 3.79M91.48 30l3.76-6.63M106.13 15.48l-3.39 5.88a5.49 5.49 0 0 1-7.5 2 5.48 5.48 0 0 1-2-7.49L96.61 10ZM99.14 6.59l-.78 4.42M107.47 12.13l-3.54 2.08M103.65 8.83l-2.37 3.86" style="fill:none;stroke:currentcolor"/>
</svg>
