<svg xmlns="http://www.w3.org/2000/svg" class="h-full w-full" viewBox="0 0 60 50">
  <circle cx="29.99" cy="26.27" r="8.33" style="fill:none;stroke:currentcolor"/>
  <path d="M28.19 22.54a1 1 0 0 0-1.1-.79c-.55 0-.86.21-.86.58s.23.56.91.7a4.35 4.35 0 0 1 1.65.57 1.89 1.89 0 0 1 .81 1.58 2.21 2.21 0 0 1-.92 1.82 3 3 0 0 1-1.67.43 2.77 2.77 0 0 1-1.8-.57 2.09 2.09 0 0 1-.75-1.28l1.35-.33a1.17 1.17 0 0 0 1.28.93c.62 0 1-.27 1-.7s-.25-.58-1.09-.76a4.1 4.1 0 0 1-1.46-.52 1.73 1.73 0 0 1-.76-1.52 2 2 0 0 1 .64-1.53 2.23 2.23 0 0 1 1.65-.58 2.54 2.54 0 0 1 1.65.51 2 2 0 0 1 .7 1.05ZM32.28 24.59a2.76 2.76 0 0 1 2.43.93 4 4 0 0 1 0 4.77 2.68 2.68 0 0 1-2.21 1h-2.14v-6.7ZM31.8 30h.61a1.27 1.27 0 0 0 1.13-.54 2.8 2.8 0 0 0 .46-1.57 2.66 2.66 0 0 0-.45-1.53 1.23 1.23 0 0 0-1.12-.54h-.63Z" style="fill:currentcolor"/>
</svg>
