<svg xmlns="http://www.w3.org/2000/svg" class="h-full w-full" viewBox="0 0 60 50">
  <path d="M38.67 13.45h-1.83l-1.32-5.29c-.05.21-.06.27-.11.46l-1.15 4.83h-1.83l-2.05-8h1.9l1.11 4.88a1.25 1.25 0 0 0 .07.27s0 .13.06.24l1.3-5.39h1.73l1.35 5.39c0-.12 0-.21.05-.24a2.14 2.14 0 0 0 .06-.27l1.14-4.88h1.54ZM43.45 13.45h-1.9v-8h3.15a2.9 2.9 0 0 1 2.24.64 2.28 2.28 0 0 1 .81 1.82 2.53 2.53 0 0 1-.87 2 2.76 2.76 0 0 1-2.11.57h-1.32ZM44.6 9a1.18 1.18 0 0 0 1-.35 1.12 1.12 0 0 0 0-1.48 1.24 1.24 0 0 0-1-.3h-1.22V9Z" style="fill:currentcolor"/>
  <path d="M33 23.45a8.34 8.34 0 1 0-8.34 8.33A8.33 8.33 0 0 0 33 23.45ZM21.67 15.68V43.8M27.67 15.68V43.8" style="fill:none;stroke:currentcolor"/>
</svg>
