<svg xmlns="http://www.w3.org/2000/svg" class="h-full w-full" viewBox="0 0 60 50">
  <path d="M24.23 25.41A4.47 4.47 0 0 0 29 28.67c2.4 0 3.84-1.1 3.84-2.93 0-1.22-.89-2.13-2.45-2.52l-3.19-.81a5.6 5.6 0 0 1-2.64-1.2 4.15 4.15 0 0 1-1.3-3.1c0-2.62 2.16-4.37 5.4-4.37a5.53 5.53 0 0 1 5.71 3.94l-1.8.5a2.94 2.94 0 0 0-1-1.73 4.55 4.55 0 0 0-3-1.08c-1.95 0-3.39 1.11-3.39 2.62 0 1.27.75 2 2.62 2.42l3 .72c2.73.65 4.12 2.14 4.12 4.42 0 2.93-2.32 4.82-5.92 4.82a6.53 6.53 0 0 1-4.68-1.58 6.86 6.86 0 0 1-1.85-3Z" style="fill:currentcolor"/>
</svg>
