<svg xmlns="http://www.w3.org/2000/svg" class="h-full w-full" viewBox="0 0 60 50">
  <path d="M31.61 13.45h-.85a5.6 5.6 0 0 0-.27-.92 2.55 2.55 0 0 1-2.19 1c-2 0-3.29-1.56-3.29-4s1.35-4.22 3.49-4.22a3 3 0 0 1 3.11 2.75l-1.77.24a2.05 2.05 0 0 0-.24-.8 1.26 1.26 0 0 0-1.14-.66c-1 0-1.55.94-1.55 2.66s.58 2.53 1.63 2.53a1.26 1.26 0 0 0 1.05-.49 1.31 1.31 0 0 0 .25-.89h-1.51V9.17h3.28ZM35 7v1.83h3v1.5h-3v3.12h-1.91v-8h5.69V7ZM44.07 8.56a2.34 2.34 0 0 0-.2-1 1.16 1.16 0 0 0-1.12-.68c-1 0-1.46.88-1.46 2.68s.47 2.51 1.5 2.51c.79 0 1.24-.49 1.42-1.51l1.82.11a3.26 3.26 0 0 1-.6 1.66 3.12 3.12 0 0 1-2.65 1.26c-2.18 0-3.58-1.62-3.58-4.12a4.46 4.46 0 0 1 .94-2.93 3.21 3.21 0 0 1 2.67-1.19 3 3 0 0 1 2.53 1.14 3.8 3.8 0 0 1 .69 2ZM49 13.45h-1.88v-8H49Z" style="fill:currentcolor"/>
  <path d="M27.3 23.45a8.33 8.33 0 1 0-8.3 8.33 8.33 8.33 0 0 0 8.3-8.33ZM15.97 15.68V43.8M21.97 15.68V43.8" style="fill:none;stroke:currentcolor"/>
</svg>
