<svg xmlns="http://www.w3.org/2000/svg" class="h-full w-full" viewBox="0 0 60 50">
  <path d="M33.12 30A3.34 3.34 0 0 1 36 31.11 4.43 4.43 0 0 1 37 34a4.39 4.39 0 0 1-.94 2.85A3.2 3.2 0 0 1 33.42 38h-2.6v-8Zm-.57 6.5h.73a1.55 1.55 0 0 0 1.36-.65 3.35 3.35 0 0 0 .54-1.9 3.14 3.14 0 0 0-.53-1.83 1.49 1.49 0 0 0-1.35-.65h-.75ZM39.93 38h-1.77v-8h1.77ZM42.92 31.47V38h-1.48v-8h2.75l1.32 4.78L46.92 30h2.75v8h-1.78v-6.53L46 38h-1.22ZM18 25.41a4.47 4.47 0 0 0 4.73 3.26c2.4 0 3.84-1.1 3.84-2.93 0-1.22-.89-2.13-2.45-2.52L21 22.41a5.6 5.6 0 0 1-2.64-1.2 4.15 4.15 0 0 1-1.3-3.1c0-2.62 2.16-4.37 5.4-4.37a5.53 5.53 0 0 1 5.71 3.94l-1.8.5a3 3 0 0 0-1-1.73 4.6 4.6 0 0 0-3-1.08C20.4 15.37 19 16.48 19 18c0 1.27.74 2 2.61 2.42l3 .72c2.73.65 4.13 2.14 4.13 4.42 0 2.93-2.33 4.82-5.93 4.82a6.54 6.54 0 0 1-4.68-1.58 7 7 0 0 1-1.85-3Z" style="fill:currentcolor"/>
</svg>
