<svg xmlns="http://www.w3.org/2000/svg" class="h-full w-full" viewBox="0 0 60 50">
  <path d="M35.93 33.16a1.24 1.24 0 0 0 1-.31.92.92 0 0 0 .25-.62 1 1 0 0 0-1.08-1c-.66 0-1 .3-1.23 1L33.2 32a2.56 2.56 0 0 1 .73-1.31 3.08 3.08 0 0 1 2.22-.82c1.69 0 2.84.87 2.84 2.14a1.78 1.78 0 0 1-1.37 1.79 2 2 0 0 1 1 .49 1.82 1.82 0 0 1 .6 1.41c0 1.46-1.21 2.41-3.09 2.41a3.06 3.06 0 0 1-2.3-.81 2.57 2.57 0 0 1-.83-1.62l1.7-.24a1.37 1.37 0 0 0 1.44 1.24 1.1 1.1 0 0 0 1.23-1.08 1 1 0 0 0-.41-.85 2 2 0 0 0-1.11-.18h-.73v-1.41ZM21.13 25.41a4.48 4.48 0 0 0 4.73 3.26c2.4 0 3.84-1.1 3.84-2.93 0-1.22-.89-2.13-2.45-2.52l-3.19-.81a5.6 5.6 0 0 1-2.64-1.2 4.15 4.15 0 0 1-1.3-3.1c0-2.62 2.16-4.37 5.4-4.37a5.54 5.54 0 0 1 5.72 3.94l-1.8.5a3 3 0 0 0-1-1.73 4.56 4.56 0 0 0-3-1.08c-1.94 0-3.38 1.11-3.38 2.62 0 1.27.74 2 2.61 2.42l3 .72c2.74.65 4.13 2.14 4.13 4.42 0 2.93-2.33 4.82-5.93 4.82a6.54 6.54 0 0 1-4.68-1.58 7 7 0 0 1-1.85-3Z" style="fill:currentcolor"/>
</svg>
