<svg xmlns="http://www.w3.org/2000/svg" class="h-full w-full" viewBox="0 0 60 50">
  <path d="M25.44 22.87v1.64h2.83V26h-2.83v1.75H29v1.59h-5.4v-8H29v1.52ZM34 23.64a1.2 1.2 0 0 0-1.32-.95c-.65 0-1 .26-1 .71s.28.67 1.09.84a5.27 5.27 0 0 1 2 .68 2.28 2.28 0 0 1 1 1.9A2.63 2.63 0 0 1 34.56 29a3.55 3.55 0 0 1-2 .52 3.31 3.31 0 0 1-2.16-.69 2.55 2.55 0 0 1-.9-1.53l1.63-.4a1.39 1.39 0 0 0 1.52 1.1c.75 0 1.22-.33 1.22-.84s-.31-.7-1.32-.91a4.76 4.76 0 0 1-1.74-.63 2.07 2.07 0 0 1-.92-1.82 2.45 2.45 0 0 1 .77-1.85 2.69 2.69 0 0 1 2-.69 3 3 0 0 1 2 .61 2.45 2.45 0 0 1 .84 1.27Z" style="fill:currentcolor"/>
  <path d="M21.26 16.57h16.43v17.51H21.26z" style="fill:none;stroke:currentcolor"/>
</svg>
