<svg xmlns="http://www.w3.org/2000/svg" class="h-full w-full" viewBox="0 0 60 50">
  <path d="M12.08 28.35h-1.8v-8h3a2.65 2.65 0 0 1 2.12.63 2.38 2.38 0 0 1 .75 1.83 2.66 2.66 0 0 1-.81 2 2.56 2.56 0 0 1-2 .56h-1.26Zm1.09-4.43a1.07 1.07 0 0 0 .94-.35 1.14 1.14 0 0 0 0-1.47 1.09 1.09 0 0 0-.9-.3H12v2.12ZM20.54 20.35a2.45 2.45 0 0 1 1.81.51 1.94 1.94 0 0 1 .7 1.55 1.73 1.73 0 0 1-1.36 1.78 1.94 1.94 0 0 1 1 .49 2.07 2.07 0 0 1 .61 1.47 2.21 2.21 0 0 1-.69 1.6 2.85 2.85 0 0 1-2 .6H17v-8Zm-1.75 3.16h1.33a1.15 1.15 0 0 0 .8-.18.91.91 0 0 0 .32-.72A.81.81 0 0 0 21 22c-.19-.19-.33-.22-1-.22h-1.21Zm0 3.36h1.35a1.55 1.55 0 0 0 .86-.17 1 1 0 0 0 .39-.81c0-.6-.43-.95-1.19-.95h-1.41ZM40.34 20.35a3.37 3.37 0 0 1 2.93 1.11 4.78 4.78 0 0 1 0 5.72 3.24 3.24 0 0 1-2.65 1.17h-2.57v-8Zm-.56 6.5h.72a1.52 1.52 0 0 0 1.36-.65 3.32 3.32 0 0 0 .55-1.89 3.18 3.18 0 0 0-.54-1.84 1.49 1.49 0 0 0-1.34-.65h-.75ZM48.91 20.35a2.47 2.47 0 0 1 1.81.51 2 2 0 0 1 .7 1.55 1.73 1.73 0 0 1-1.37 1.78 1.89 1.89 0 0 1 1 .49 2 2 0 0 1 .62 1.47 2.19 2.19 0 0 1-.69 1.6 2.85 2.85 0 0 1-2 .6h-3.59v-8Zm-1.76 3.16h1.34a1.12 1.12 0 0 0 .79-.18.88.88 0 0 0 .33-.71.82.82 0 0 0-.26-.64c-.19-.19-.33-.22-1-.22h-1.2Zm0 3.36h1.36a1.51 1.51 0 0 0 .87-.16 1 1 0 0 0 .4-.82c0-.6-.43-.95-1.19-.95h-1.44Z" style="fill:currentcolor"/>
  <path d="M8.36 15.58h16.43v17.51H8.36zM36.43 15.58h16.43v17.51H36.43z" style="fill:none;stroke:currentcolor"/>
</svg>
