<svg xmlns="http://www.w3.org/2000/svg" class="h-full w-full" viewBox="0 0 60 50">
  <path d="M28.41 26.2a2.53 2.53 0 0 0-.19-1 1.11 1.11 0 0 0-1.06-.69c-.93 0-1.38.89-1.38 2.69s.44 2.51 1.42 2.51c.74 0 1.17-.49 1.34-1.51l1.71.1a3.26 3.26 0 0 1-.56 1.7 2.9 2.9 0 0 1-2.5 1.26c-2.05 0-3.38-1.62-3.38-4.13a4.7 4.7 0 0 1 .88-2.92A3 3 0 0 1 27.22 23a2.71 2.71 0 0 1 2.39 1.14 3.9 3.9 0 0 1 .64 1.95ZM33.07 31.09h-1.78v-8h3.32a2.65 2.65 0 0 1 2 .54 2.51 2.51 0 0 1 .8 1.86 2.41 2.41 0 0 1-.57 1.56 2.14 2.14 0 0 1-.73.51l1.39 3.53h-2l-1.16-3.17h-1.27Zm0-4.53h1.08c.59 0 .73 0 .94-.17a1.09 1.09 0 0 0 .44-.88 1 1 0 0 0-.35-.79c-.22-.18-.36-.2-1.07-.2h-1Z" style="fill:currentcolor"/>
  <path d="M22.48 18.32h16.43v17.51H22.48z" style="fill:none;stroke:currentcolor"/>
</svg>
